<svg height="512pt" viewBox="-50 0 512 512" width="512pt" xmlns="http://www.w3.org/2000/svg"><path d="m405.101562 81.265625c4.140626 0 7.5-3.359375 7.5-7.5v-66.265625c0-4.144531-3.359374-7.5-7.5-7.5h-66.269531c-4.140625 0-7.5 3.355469-7.5 7.5v.78125h-250.066406v-.78125c0-4.144531-3.355469-7.5-7.5-7.5h-66.265625c-4.144531 0-7.5 3.355469-7.5 7.5v66.265625c0 4.140625 3.355469 7.5 7.5 7.5h.785156v349.46875h-.785156c-4.144531 0-7.5 3.359375-7.5 7.5v66.265625c0 4.144531 3.355469 7.5 7.5 7.5h66.265625c4.144531 0 7.5-3.355469 7.5-7.5v-.785156h250.066406v.785156c0 4.144531 3.359375 7.5 7.5 7.5h66.269531c4.140626 0 7.5-3.355469 7.5-7.5v-66.265625c0-4.140625-3.359374-7.5-7.5-7.5h-.785156v-349.46875zm-58.769531-66.265625h51.269531v51.265625h-.765624c-.007813 0-.011719 0-.019532 0-.007812 0-.011718 0-.019531 0h-24.832031c-14.132813 0-25.632813-11.496094-25.632813-25.632813zm-15 8.28125v17.351562c0 .261719.015625.523438.019531.78125h-167.324218c-4.144532 0-7.5 3.359376-7.5 7.5 0 4.144532 3.355468 7.5 7.5 7.5h170.496094c4.117187 9.734376 11.925781 17.542969 21.660156 21.660157v355.851562c-9.691406 4.101563-17.46875 11.855469-21.601563 21.527344h-256.5625c-4.132812-9.671875-11.914062-17.425781-21.601562-21.527344v-355.851562c9.734375-4.117188 17.539062-11.925781 21.65625-21.660157h54.558593c4.144532 0 7.5-3.355468 7.5-7.5 0-4.140624-3.355468-7.5-7.5-7.5h-51.386718c.007812-.257812.019531-.519531.019531-.78125v-17.351562zm-316.332031-8.28125h51.265625v25.632812c0 14.136719-11.496094 25.632813-25.632813 25.632813h-24.828124c-.007813 0-.015626 0-.019532 0-.007812 0-.015625 0-.019531 0h-.765625zm8.285156 66.265625h17.347656c.265626 0 .523438-.011719.785157-.019531v349.507812c-.261719-.003906-.523438-.019531-.785157-.019531h-17.347656zm42.980469 415.734375h-51.265625v-51.265625h25.632812c14.136719 0 25.632813 11.496094 25.632813 25.632813zm15-8.285156v-17.347656c0-.308594-.015625-.609376-.023437-.914063h250.113281c-.003907.304687-.019531.605469-.019531.914063v17.347656zm316.335937 8.285156h-51.269531v-25.632812c0-14.136719 11.5-25.632813 25.632813-25.632813h25.636718zm-8.285156-66.265625h-17.351562c-.261719 0-.519532.015625-.78125.019531v-349.507812c.261718.007812.519531.019531.78125.019531h17.351562zm0 0"/><path d="m379.734375 40.632812c0 4.289063-3.476563 7.765626-7.765625 7.765626s-7.769531-3.476563-7.769531-7.765626c0-4.289062 3.480469-7.765624 7.769531-7.765624s7.765625 3.476562 7.765625 7.765624zm0 0"/><path d="m48.398438 40.632812c0 4.289063-3.476563 7.765626-7.765626 7.765626-4.289062 0-7.765624-3.476563-7.765624-7.765626 0-4.289062 3.476562-7.765624 7.765624-7.765624 4.289063 0 7.765626 3.476562 7.765626 7.765624zm0 0"/><path d="m379.734375 471.367188c0 4.289062-3.476563 7.765624-7.765625 7.765624s-7.769531-3.476562-7.769531-7.765624c0-4.289063 3.480469-7.765626 7.769531-7.765626s7.765625 3.476563 7.765625 7.765626zm0 0"/><path d="m48.398438 471.367188c0 4.289062-3.476563 7.765624-7.765626 7.765624-4.289062 0-7.765624-3.476562-7.765624-7.765624 0-4.289063 3.476562-7.765626 7.765624-7.765626 4.289063 0 7.765626 3.476563 7.765626 7.765626zm0 0"/><path d="m83.722656 218.121094c1.304688 2.441406 3.84375 3.964844 6.609375 3.964844h75.34375c0 .257812-.011719.519531-.011719.78125 0 12.09375 2.652344 23.570312 7.367188 33.914062h-49.566406c-4.140625 0-7.5 3.359375-7.5 7.5v132.535156c0 4.144532 3.359375 7.5 7.5 7.5h132.53125c4.144531 0 7.5-3.355468 7.5-7.5v-93.4375c37.71875-7.378906 66.269531-40.667968 66.269531-80.511718 0-45.242188-36.804687-82.050782-82.050781-82.050782-19.429688 0-37.71875 6.667969-52.402344 18.917969l-32.472656-48.714844c-1.394532-2.085937-3.734375-3.339843-6.242188-3.339843-2.507812 0-4.851562 1.253906-6.238281 3.339843l-66.265625 99.402344c-1.535156 2.304687-1.679688 5.261719-.371094 7.699219zm164.777344 171.195312h-117.53125v-117.535156h50.914062c14.972657 20.097656 38.90625 33.136719 65.832032 33.136719.261718 0 .523437-.015625.78125-.019531v84.417968zm-.78125-233.5c36.96875 0 67.050781 30.078125 67.050781 67.050782 0 36.972656-30.082031 67.050781-67.050781 67.050781-36.972656 0-67.054688-30.078125-67.054688-67.050781 0-.261719.019532-.523438.023438-.78125h42.175781c2.769531 0 5.308594-1.523438 6.613281-3.964844 1.304688-2.4375 1.164063-5.394532-.371093-7.695313l-25.410157-38.121093c12.195313-10.664063 27.609376-16.488282 44.023438-16.488282zm-91.121094-27.113281 31.164063 46.742187c.007812.011719.015625.023438.023437.035157l21.066406 31.605469h-104.503906zm0 0"/></svg>